<?xml version="1.0" encoding="utf-8" standalone="no"?>
<!DOCTYPE svg PUBLIC "-//W3C//DTD SVG 1.1//EN"
  "http://www.w3.org/Graphics/SVG/1.1/DTD/svg11.dtd">
<!-- Created with matplotlib (https://matplotlib.org/) -->
<svg height="216pt" version="1.1" viewBox="0 0 432 216" width="432pt" xmlns="http://www.w3.org/2000/svg" xmlns:xlink="http://www.w3.org/1999/xlink">
 <metadata>
  <rdf:RDF xmlns:cc="http://creativecommons.org/ns#" xmlns:dc="http://purl.org/dc/elements/1.1/" xmlns:rdf="http://www.w3.org/1999/02/22-rdf-syntax-ns#">
   <cc:Work>
    <dc:type rdf:resource="http://purl.org/dc/dcmitype/StillImage"/>
    <dc:date>2025-04-17T16:47:22.697675</dc:date>
    <dc:format>image/svg+xml</dc:format>
    <dc:creator>
     <cc:Agent>
      <dc:title>Matplotlib v3.3.4, https://matplotlib.org/</dc:title>
     </cc:Agent>
    </dc:creator>
   </cc:Work>
  </rdf:RDF>
 </metadata>
 <defs>
  <style type="text/css">*{stroke-linecap:butt;stroke-linejoin:round;}</style>
 </defs>
 <g id="figure_1">
  <g id="patch_1">
   <path d="M 0 216 
L 432 216 
L 432 0 
L 0 0 
z
" style="fill:#ffffff;"/>
  </g>
  <g id="axes_1">
   <g id="patch_2">
    <path d="M 46.949554 182.84 
L 425.62 182.84 
L 425.62 45.516 
L 46.949554 45.516 
z
" style="fill:#ffffff;"/>
   </g>
   <g id="matplotlib.axis_1">
    <g id="xtick_1">
     <g id="line2d_1">
      <path clip-path="url(#pdd7e4c39bb)" d="M 64.161847 182.84 
L 64.161847 45.516 
" style="fill:none;stroke:#b0b0b0;stroke-dasharray:0.4,0.66;stroke-dashoffset:0;stroke-opacity:0.3;stroke-width:0.4;"/>
     </g>
     <g id="line2d_2">
      <defs>
       <path d="M 0 0 
L 0 3.5 
" id="m582f992c89" style="stroke:#000000;stroke-width:0.8;"/>
      </defs>
      <g>
       <use style="stroke:#000000;stroke-width:0.8;" x="64.161847" xlink:href="#m582f992c89" y="182.84"/>
      </g>
     </g>
     <g id="text_1">
      <!-- 0 -->
      <g transform="translate(60.980597 197.438438)scale(0.1 -0.1)">
       <defs>
        <path d="M 31.78125 66.40625 
Q 24.171875 66.40625 20.328125 58.90625 
Q 16.5 51.421875 16.5 36.375 
Q 16.5 21.390625 20.328125 13.890625 
Q 24.171875 6.390625 31.78125 6.390625 
Q 39.453125 6.390625 43.28125 13.890625 
Q 47.125 21.390625 47.125 36.375 
Q 47.125 51.421875 43.28125 58.90625 
Q 39.453125 66.40625 31.78125 66.40625 
z
M 31.78125 74.21875 
Q 44.046875 74.21875 50.515625 64.515625 
Q 56.984375 54.828125 56.984375 36.375 
Q 56.984375 17.96875 50.515625 8.265625 
Q 44.046875 -1.421875 31.78125 -1.421875 
Q 19.53125 -1.421875 13.0625 8.265625 
Q 6.59375 17.96875 6.59375 36.375 
Q 6.59375 54.828125 13.0625 64.515625 
Q 19.53125 74.21875 31.78125 74.21875 
z
" id="DejaVuSans-48"/>
       </defs>
       <use xlink:href="#DejaVuSans-48"/>
      </g>
     </g>
    </g>
    <g id="xtick_2">
     <g id="line2d_3">
      <path clip-path="url(#pdd7e4c39bb)" d="M 133.011019 182.84 
L 133.011019 45.516 
" style="fill:none;stroke:#b0b0b0;stroke-dasharray:0.4,0.66;stroke-dashoffset:0;stroke-opacity:0.3;stroke-width:0.4;"/>
     </g>
     <g id="line2d_4">
      <g>
       <use style="stroke:#000000;stroke-width:0.8;" x="133.011019" xlink:href="#m582f992c89" y="182.84"/>
      </g>
     </g>
     <g id="text_2">
      <!-- 20 -->
      <g transform="translate(126.648519 197.438438)scale(0.1 -0.1)">
       <defs>
        <path d="M 19.1875 8.296875 
L 53.609375 8.296875 
L 53.609375 0 
L 7.328125 0 
L 7.328125 8.296875 
Q 12.9375 14.109375 22.625 23.890625 
Q 32.328125 33.6875 34.8125 36.53125 
Q 39.546875 41.84375 41.421875 45.53125 
Q 43.3125 49.21875 43.3125 52.78125 
Q 43.3125 58.59375 39.234375 62.25 
Q 35.15625 65.921875 28.609375 65.921875 
Q 23.96875 65.921875 18.8125 64.3125 
Q 13.671875 62.703125 7.8125 59.421875 
L 7.8125 69.390625 
Q 13.765625 71.78125 18.9375 73 
Q 24.125 74.21875 28.421875 74.21875 
Q 39.75 74.21875 46.484375 68.546875 
Q 53.21875 62.890625 53.21875 53.421875 
Q 53.21875 48.921875 51.53125 44.890625 
Q 49.859375 40.875 45.40625 35.40625 
Q 44.1875 33.984375 37.640625 27.21875 
Q 31.109375 20.453125 19.1875 8.296875 
z
" id="DejaVuSans-50"/>
       </defs>
       <use xlink:href="#DejaVuSans-50"/>
       <use x="63.623047" xlink:href="#DejaVuSans-48"/>
      </g>
     </g>
    </g>
    <g id="xtick_3">
     <g id="line2d_5">
      <path clip-path="url(#pdd7e4c39bb)" d="M 201.860191 182.84 
L 201.860191 45.516 
" style="fill:none;stroke:#b0b0b0;stroke-dasharray:0.4,0.66;stroke-dashoffset:0;stroke-opacity:0.3;stroke-width:0.4;"/>
     </g>
     <g id="line2d_6">
      <g>
       <use style="stroke:#000000;stroke-width:0.8;" x="201.860191" xlink:href="#m582f992c89" y="182.84"/>
      </g>
     </g>
     <g id="text_3">
      <!-- 40 -->
      <g transform="translate(195.497691 197.438438)scale(0.1 -0.1)">
       <defs>
        <path d="M 37.796875 64.3125 
L 12.890625 25.390625 
L 37.796875 25.390625 
z
M 35.203125 72.90625 
L 47.609375 72.90625 
L 47.609375 25.390625 
L 58.015625 25.390625 
L 58.015625 17.1875 
L 47.609375 17.1875 
L 47.609375 0 
L 37.796875 0 
L 37.796875 17.1875 
L 4.890625 17.1875 
L 4.890625 26.703125 
z
" id="DejaVuSans-52"/>
       </defs>
       <use xlink:href="#DejaVuSans-52"/>
       <use x="63.623047" xlink:href="#DejaVuSans-48"/>
      </g>
     </g>
    </g>
    <g id="xtick_4">
     <g id="line2d_7">
      <path clip-path="url(#pdd7e4c39bb)" d="M 270.709363 182.84 
L 270.709363 45.516 
" style="fill:none;stroke:#b0b0b0;stroke-dasharray:0.4,0.66;stroke-dashoffset:0;stroke-opacity:0.3;stroke-width:0.4;"/>
     </g>
     <g id="line2d_8">
      <g>
       <use style="stroke:#000000;stroke-width:0.8;" x="270.709363" xlink:href="#m582f992c89" y="182.84"/>
      </g>
     </g>
     <g id="text_4">
      <!-- 60 -->
      <g transform="translate(264.346863 197.438438)scale(0.1 -0.1)">
       <defs>
        <path d="M 33.015625 40.375 
Q 26.375 40.375 22.484375 35.828125 
Q 18.609375 31.296875 18.609375 23.390625 
Q 18.609375 15.53125 22.484375 10.953125 
Q 26.375 6.390625 33.015625 6.390625 
Q 39.65625 6.390625 43.53125 10.953125 
Q 47.40625 15.53125 47.40625 23.390625 
Q 47.40625 31.296875 43.53125 35.828125 
Q 39.65625 40.375 33.015625 40.375 
z
M 52.59375 71.296875 
L 52.59375 62.3125 
Q 48.875 64.0625 45.09375 64.984375 
Q 41.3125 65.921875 37.59375 65.921875 
Q 27.828125 65.921875 22.671875 59.328125 
Q 17.53125 52.734375 16.796875 39.40625 
Q 19.671875 43.65625 24.015625 45.921875 
Q 28.375 48.1875 33.59375 48.1875 
Q 44.578125 48.1875 50.953125 41.515625 
Q 57.328125 34.859375 57.328125 23.390625 
Q 57.328125 12.15625 50.6875 5.359375 
Q 44.046875 -1.421875 33.015625 -1.421875 
Q 20.359375 -1.421875 13.671875 8.265625 
Q 6.984375 17.96875 6.984375 36.375 
Q 6.984375 53.65625 15.1875 63.9375 
Q 23.390625 74.21875 37.203125 74.21875 
Q 40.921875 74.21875 44.703125 73.484375 
Q 48.484375 72.75 52.59375 71.296875 
z
" id="DejaVuSans-54"/>
       </defs>
       <use xlink:href="#DejaVuSans-54"/>
       <use x="63.623047" xlink:href="#DejaVuSans-48"/>
      </g>
     </g>
    </g>
    <g id="xtick_5">
     <g id="line2d_9">
      <path clip-path="url(#pdd7e4c39bb)" d="M 339.558535 182.84 
L 339.558535 45.516 
" style="fill:none;stroke:#b0b0b0;stroke-dasharray:0.4,0.66;stroke-dashoffset:0;stroke-opacity:0.3;stroke-width:0.4;"/>
     </g>
     <g id="line2d_10">
      <g>
       <use style="stroke:#000000;stroke-width:0.8;" x="339.558535" xlink:href="#m582f992c89" y="182.84"/>
      </g>
     </g>
     <g id="text_5">
      <!-- 80 -->
      <g transform="translate(333.196035 197.438438)scale(0.1 -0.1)">
       <defs>
        <path d="M 31.78125 34.625 
Q 24.75 34.625 20.71875 30.859375 
Q 16.703125 27.09375 16.703125 20.515625 
Q 16.703125 13.921875 20.71875 10.15625 
Q 24.75 6.390625 31.78125 6.390625 
Q 38.8125 6.390625 42.859375 10.171875 
Q 46.921875 13.96875 46.921875 20.515625 
Q 46.921875 27.09375 42.890625 30.859375 
Q 38.875 34.625 31.78125 34.625 
z
M 21.921875 38.8125 
Q 15.578125 40.375 12.03125 44.71875 
Q 8.5 49.078125 8.5 55.328125 
Q 8.5 64.0625 14.71875 69.140625 
Q 20.953125 74.21875 31.78125 74.21875 
Q 42.671875 74.21875 48.875 69.140625 
Q 55.078125 64.0625 55.078125 55.328125 
Q 55.078125 49.078125 51.53125 44.71875 
Q 48 40.375 41.703125 38.8125 
Q 48.828125 37.15625 52.796875 32.3125 
Q 56.78125 27.484375 56.78125 20.515625 
Q 56.78125 9.90625 50.3125 4.234375 
Q 43.84375 -1.421875 31.78125 -1.421875 
Q 19.734375 -1.421875 13.25 4.234375 
Q 6.78125 9.90625 6.78125 20.515625 
Q 6.78125 27.484375 10.78125 32.3125 
Q 14.796875 37.15625 21.921875 38.8125 
z
M 18.3125 54.390625 
Q 18.3125 48.734375 21.84375 45.5625 
Q 25.390625 42.390625 31.78125 42.390625 
Q 38.140625 42.390625 41.71875 45.5625 
Q 45.3125 48.734375 45.3125 54.390625 
Q 45.3125 60.0625 41.71875 63.234375 
Q 38.140625 66.40625 31.78125 66.40625 
Q 25.390625 66.40625 21.84375 63.234375 
Q 18.3125 60.0625 18.3125 54.390625 
z
" id="DejaVuSans-56"/>
       </defs>
       <use xlink:href="#DejaVuSans-56"/>
       <use x="63.623047" xlink:href="#DejaVuSans-48"/>
      </g>
     </g>
    </g>
    <g id="xtick_6">
     <g id="line2d_11">
      <path clip-path="url(#pdd7e4c39bb)" d="M 408.407707 182.84 
L 408.407707 45.516 
" style="fill:none;stroke:#b0b0b0;stroke-dasharray:0.4,0.66;stroke-dashoffset:0;stroke-opacity:0.3;stroke-width:0.4;"/>
     </g>
     <g id="line2d_12">
      <g>
       <use style="stroke:#000000;stroke-width:0.8;" x="408.407707" xlink:href="#m582f992c89" y="182.84"/>
      </g>
     </g>
     <g id="text_6">
      <!-- 100 -->
      <g transform="translate(398.863957 197.438438)scale(0.1 -0.1)">
       <defs>
        <path d="M 12.40625 8.296875 
L 28.515625 8.296875 
L 28.515625 63.921875 
L 10.984375 60.40625 
L 10.984375 69.390625 
L 28.421875 72.90625 
L 38.28125 72.90625 
L 38.28125 8.296875 
L 54.390625 8.296875 
L 54.390625 0 
L 12.40625 0 
z
" id="DejaVuSans-49"/>
       </defs>
       <use xlink:href="#DejaVuSans-49"/>
       <use x="63.623047" xlink:href="#DejaVuSans-48"/>
       <use x="127.246094" xlink:href="#DejaVuSans-48"/>
      </g>
     </g>
    </g>
    <g id="text_7">
     <!-- Epoch -->
     <g transform="translate(220.973839 211.116563)scale(0.1 -0.1)">
      <defs>
       <path d="M 9.8125 72.90625 
L 55.90625 72.90625 
L 55.90625 64.59375 
L 19.671875 64.59375 
L 19.671875 43.015625 
L 54.390625 43.015625 
L 54.390625 34.71875 
L 19.671875 34.71875 
L 19.671875 8.296875 
L 56.78125 8.296875 
L 56.78125 0 
L 9.8125 0 
z
" id="DejaVuSans-69"/>
       <path d="M 18.109375 8.203125 
L 18.109375 -20.796875 
L 9.078125 -20.796875 
L 9.078125 54.6875 
L 18.109375 54.6875 
L 18.109375 46.390625 
Q 20.953125 51.265625 25.265625 53.625 
Q 29.59375 56 35.59375 56 
Q 45.5625 56 51.78125 48.09375 
Q 58.015625 40.1875 58.015625 27.296875 
Q 58.015625 14.40625 51.78125 6.484375 
Q 45.5625 -1.421875 35.59375 -1.421875 
Q 29.59375 -1.421875 25.265625 0.953125 
Q 20.953125 3.328125 18.109375 8.203125 
z
M 48.6875 27.296875 
Q 48.6875 37.203125 44.609375 42.84375 
Q 40.53125 48.484375 33.40625 48.484375 
Q 26.265625 48.484375 22.1875 42.84375 
Q 18.109375 37.203125 18.109375 27.296875 
Q 18.109375 17.390625 22.1875 11.75 
Q 26.265625 6.109375 33.40625 6.109375 
Q 40.53125 6.109375 44.609375 11.75 
Q 48.6875 17.390625 48.6875 27.296875 
z
" id="DejaVuSans-112"/>
       <path d="M 30.609375 48.390625 
Q 23.390625 48.390625 19.1875 42.75 
Q 14.984375 37.109375 14.984375 27.296875 
Q 14.984375 17.484375 19.15625 11.84375 
Q 23.34375 6.203125 30.609375 6.203125 
Q 37.796875 6.203125 41.984375 11.859375 
Q 46.1875 17.53125 46.1875 27.296875 
Q 46.1875 37.015625 41.984375 42.703125 
Q 37.796875 48.390625 30.609375 48.390625 
z
M 30.609375 56 
Q 42.328125 56 49.015625 48.375 
Q 55.71875 40.765625 55.71875 27.296875 
Q 55.71875 13.875 49.015625 6.21875 
Q 42.328125 -1.421875 30.609375 -1.421875 
Q 18.84375 -1.421875 12.171875 6.21875 
Q 5.515625 13.875 5.515625 27.296875 
Q 5.515625 40.765625 12.171875 48.375 
Q 18.84375 56 30.609375 56 
z
" id="DejaVuSans-111"/>
       <path d="M 48.78125 52.59375 
L 48.78125 44.1875 
Q 44.96875 46.296875 41.140625 47.34375 
Q 37.3125 48.390625 33.40625 48.390625 
Q 24.65625 48.390625 19.8125 42.84375 
Q 14.984375 37.3125 14.984375 27.296875 
Q 14.984375 17.28125 19.8125 11.734375 
Q 24.65625 6.203125 33.40625 6.203125 
Q 37.3125 6.203125 41.140625 7.25 
Q 44.96875 8.296875 48.78125 10.40625 
L 48.78125 2.09375 
Q 45.015625 0.34375 40.984375 -0.53125 
Q 36.96875 -1.421875 32.421875 -1.421875 
Q 20.0625 -1.421875 12.78125 6.34375 
Q 5.515625 14.109375 5.515625 27.296875 
Q 5.515625 40.671875 12.859375 48.328125 
Q 20.21875 56 33.015625 56 
Q 37.15625 56 41.109375 55.140625 
Q 45.0625 54.296875 48.78125 52.59375 
z
" id="DejaVuSans-99"/>
       <path d="M 54.890625 33.015625 
L 54.890625 0 
L 45.90625 0 
L 45.90625 32.71875 
Q 45.90625 40.484375 42.875 44.328125 
Q 39.84375 48.1875 33.796875 48.1875 
Q 26.515625 48.1875 22.3125 43.546875 
Q 18.109375 38.921875 18.109375 30.90625 
L 18.109375 0 
L 9.078125 0 
L 9.078125 75.984375 
L 18.109375 75.984375 
L 18.109375 46.1875 
Q 21.34375 51.125 25.703125 53.5625 
Q 30.078125 56 35.796875 56 
Q 45.21875 56 50.046875 50.171875 
Q 54.890625 44.34375 54.890625 33.015625 
z
" id="DejaVuSans-104"/>
      </defs>
      <use xlink:href="#DejaVuSans-69"/>
      <use x="63.183594" xlink:href="#DejaVuSans-112"/>
      <use x="126.660156" xlink:href="#DejaVuSans-111"/>
      <use x="187.841797" xlink:href="#DejaVuSans-99"/>
      <use x="242.822266" xlink:href="#DejaVuSans-104"/>
     </g>
    </g>
   </g>
   <g id="matplotlib.axis_2">
    <g id="ytick_1">
     <g id="line2d_13">
      <path clip-path="url(#pdd7e4c39bb)" d="M 46.949554 162.144271 
L 425.62 162.144271 
" style="fill:none;stroke:#b0b0b0;stroke-dasharray:0.4,0.66;stroke-dashoffset:0;stroke-opacity:0.3;stroke-width:0.4;"/>
     </g>
     <g id="line2d_14">
      <defs>
       <path d="M 0 0 
L -3.5 0 
" id="m7df7eb242f" style="stroke:#000000;stroke-width:0.8;"/>
      </defs>
      <g>
       <use style="stroke:#000000;stroke-width:0.8;" x="46.949554" xlink:href="#m7df7eb242f" y="162.144271"/>
      </g>
     </g>
     <g id="text_8">
      <!-- $\mathdefault{10^{-1}}$ -->
      <g transform="translate(16.449554 165.943489)scale(0.1 -0.1)">
       <defs>
        <path d="M 10.59375 35.5 
L 73.1875 35.5 
L 73.1875 27.203125 
L 10.59375 27.203125 
z
" id="DejaVuSans-8722"/>
       </defs>
       <use transform="translate(0 0.684375)" xlink:href="#DejaVuSans-49"/>
       <use transform="translate(63.623047 0.684375)" xlink:href="#DejaVuSans-48"/>
       <use transform="translate(128.203125 38.965625)scale(0.7)" xlink:href="#DejaVuSans-8722"/>
       <use transform="translate(186.855469 38.965625)scale(0.7)" xlink:href="#DejaVuSans-49"/>
      </g>
     </g>
    </g>
    <g id="ytick_2">
     <g id="line2d_15">
      <path clip-path="url(#pdd7e4c39bb)" d="M 46.949554 131.321842 
L 425.62 131.321842 
" style="fill:none;stroke:#b0b0b0;stroke-dasharray:0.4,0.66;stroke-dashoffset:0;stroke-opacity:0.3;stroke-width:0.4;"/>
     </g>
     <g id="line2d_16">
      <g>
       <use style="stroke:#000000;stroke-width:0.8;" x="46.949554" xlink:href="#m7df7eb242f" y="131.321842"/>
      </g>
     </g>
     <g id="text_9">
      <!-- $\mathdefault{10^{2}}$ -->
      <g transform="translate(22.349554 135.121061)scale(0.1 -0.1)">
       <use transform="translate(0 0.765625)" xlink:href="#DejaVuSans-49"/>
       <use transform="translate(63.623047 0.765625)" xlink:href="#DejaVuSans-48"/>
       <use transform="translate(128.203125 39.046875)scale(0.7)" xlink:href="#DejaVuSans-50"/>
      </g>
     </g>
    </g>
    <g id="ytick_3">
     <g id="line2d_17">
      <path clip-path="url(#pdd7e4c39bb)" d="M 46.949554 100.499414 
L 425.62 100.499414 
" style="fill:none;stroke:#b0b0b0;stroke-dasharray:0.4,0.66;stroke-dashoffset:0;stroke-opacity:0.3;stroke-width:0.4;"/>
     </g>
     <g id="line2d_18">
      <g>
       <use style="stroke:#000000;stroke-width:0.8;" x="46.949554" xlink:href="#m7df7eb242f" y="100.499414"/>
      </g>
     </g>
     <g id="text_10">
      <!-- $\mathdefault{10^{5}}$ -->
      <g transform="translate(22.349554 104.298633)scale(0.1 -0.1)">
       <defs>
        <path d="M 10.796875 72.90625 
L 49.515625 72.90625 
L 49.515625 64.59375 
L 19.828125 64.59375 
L 19.828125 46.734375 
Q 21.96875 47.46875 24.109375 47.828125 
Q 26.265625 48.1875 28.421875 48.1875 
Q 40.625 48.1875 47.75 41.5 
Q 54.890625 34.8125 54.890625 23.390625 
Q 54.890625 11.625 47.5625 5.09375 
Q 40.234375 -1.421875 26.90625 -1.421875 
Q 22.3125 -1.421875 17.546875 -0.640625 
Q 12.796875 0.140625 7.71875 1.703125 
L 7.71875 11.625 
Q 12.109375 9.234375 16.796875 8.0625 
Q 21.484375 6.890625 26.703125 6.890625 
Q 35.15625 6.890625 40.078125 11.328125 
Q 45.015625 15.765625 45.015625 23.390625 
Q 45.015625 31 40.078125 35.4375 
Q 35.15625 39.890625 26.703125 39.890625 
Q 22.75 39.890625 18.8125 39.015625 
Q 14.890625 38.140625 10.796875 36.28125 
z
" id="DejaVuSans-53"/>
       </defs>
       <use transform="translate(0 0.684375)" xlink:href="#DejaVuSans-49"/>
       <use transform="translate(63.623047 0.684375)" xlink:href="#DejaVuSans-48"/>
       <use transform="translate(128.203125 38.965625)scale(0.7)" xlink:href="#DejaVuSans-53"/>
      </g>
     </g>
    </g>
    <g id="ytick_4">
     <g id="line2d_19">
      <path clip-path="url(#pdd7e4c39bb)" d="M 46.949554 69.676986 
L 425.62 69.676986 
" style="fill:none;stroke:#b0b0b0;stroke-dasharray:0.4,0.66;stroke-dashoffset:0;stroke-opacity:0.3;stroke-width:0.4;"/>
     </g>
     <g id="line2d_20">
      <g>
       <use style="stroke:#000000;stroke-width:0.8;" x="46.949554" xlink:href="#m7df7eb242f" y="69.676986"/>
      </g>
     </g>
     <g id="text_11">
      <!-- $\mathdefault{10^{8}}$ -->
      <g transform="translate(22.349554 73.476204)scale(0.1 -0.1)">
       <use transform="translate(0 0.765625)" xlink:href="#DejaVuSans-49"/>
       <use transform="translate(63.623047 0.765625)" xlink:href="#DejaVuSans-48"/>
       <use transform="translate(128.203125 39.046875)scale(0.7)" xlink:href="#DejaVuSans-56"/>
      </g>
     </g>
    </g>
    <g id="text_12">
     <!-- Training loss (log) -->
     <g transform="translate(10.369866 158.263938)rotate(-90)scale(0.1 -0.1)">
      <defs>
       <path d="M -0.296875 72.90625 
L 61.375 72.90625 
L 61.375 64.59375 
L 35.5 64.59375 
L 35.5 0 
L 25.59375 0 
L 25.59375 64.59375 
L -0.296875 64.59375 
z
" id="DejaVuSans-84"/>
       <path d="M 41.109375 46.296875 
Q 39.59375 47.171875 37.8125 47.578125 
Q 36.03125 48 33.890625 48 
Q 26.265625 48 22.1875 43.046875 
Q 18.109375 38.09375 18.109375 28.8125 
L 18.109375 0 
L 9.078125 0 
L 9.078125 54.6875 
L 18.109375 54.6875 
L 18.109375 46.1875 
Q 20.953125 51.171875 25.484375 53.578125 
Q 30.03125 56 36.53125 56 
Q 37.453125 56 38.578125 55.875 
Q 39.703125 55.765625 41.0625 55.515625 
z
" id="DejaVuSans-114"/>
       <path d="M 34.28125 27.484375 
Q 23.390625 27.484375 19.1875 25 
Q 14.984375 22.515625 14.984375 16.5 
Q 14.984375 11.71875 18.140625 8.90625 
Q 21.296875 6.109375 26.703125 6.109375 
Q 34.1875 6.109375 38.703125 11.40625 
Q 43.21875 16.703125 43.21875 25.484375 
L 43.21875 27.484375 
z
M 52.203125 31.203125 
L 52.203125 0 
L 43.21875 0 
L 43.21875 8.296875 
Q 40.140625 3.328125 35.546875 0.953125 
Q 30.953125 -1.421875 24.3125 -1.421875 
Q 15.921875 -1.421875 10.953125 3.296875 
Q 6 8.015625 6 15.921875 
Q 6 25.140625 12.171875 29.828125 
Q 18.359375 34.515625 30.609375 34.515625 
L 43.21875 34.515625 
L 43.21875 35.40625 
Q 43.21875 41.609375 39.140625 45 
Q 35.0625 48.390625 27.6875 48.390625 
Q 23 48.390625 18.546875 47.265625 
Q 14.109375 46.140625 10.015625 43.890625 
L 10.015625 52.203125 
Q 14.9375 54.109375 19.578125 55.046875 
Q 24.21875 56 28.609375 56 
Q 40.484375 56 46.34375 49.84375 
Q 52.203125 43.703125 52.203125 31.203125 
z
" id="DejaVuSans-97"/>
       <path d="M 9.421875 54.6875 
L 18.40625 54.6875 
L 18.40625 0 
L 9.421875 0 
z
M 9.421875 75.984375 
L 18.40625 75.984375 
L 18.40625 64.59375 
L 9.421875 64.59375 
z
" id="DejaVuSans-105"/>
       <path d="M 54.890625 33.015625 
L 54.890625 0 
L 45.90625 0 
L 45.90625 32.71875 
Q 45.90625 40.484375 42.875 44.328125 
Q 39.84375 48.1875 33.796875 48.1875 
Q 26.515625 48.1875 22.3125 43.546875 
Q 18.109375 38.921875 18.109375 30.90625 
L 18.109375 0 
L 9.078125 0 
L 9.078125 54.6875 
L 18.109375 54.6875 
L 18.109375 46.1875 
Q 21.34375 51.125 25.703125 53.5625 
Q 30.078125 56 35.796875 56 
Q 45.21875 56 50.046875 50.171875 
Q 54.890625 44.34375 54.890625 33.015625 
z
" id="DejaVuSans-110"/>
       <path d="M 45.40625 27.984375 
Q 45.40625 37.75 41.375 43.109375 
Q 37.359375 48.484375 30.078125 48.484375 
Q 22.859375 48.484375 18.828125 43.109375 
Q 14.796875 37.75 14.796875 27.984375 
Q 14.796875 18.265625 18.828125 12.890625 
Q 22.859375 7.515625 30.078125 7.515625 
Q 37.359375 7.515625 41.375 12.890625 
Q 45.40625 18.265625 45.40625 27.984375 
z
M 54.390625 6.78125 
Q 54.390625 -7.171875 48.1875 -13.984375 
Q 42 -20.796875 29.203125 -20.796875 
Q 24.46875 -20.796875 20.265625 -20.09375 
Q 16.0625 -19.390625 12.109375 -17.921875 
L 12.109375 -9.1875 
Q 16.0625 -11.328125 19.921875 -12.34375 
Q 23.78125 -13.375 27.78125 -13.375 
Q 36.625 -13.375 41.015625 -8.765625 
Q 45.40625 -4.15625 45.40625 5.171875 
L 45.40625 9.625 
Q 42.625 4.78125 38.28125 2.390625 
Q 33.9375 0 27.875 0 
Q 17.828125 0 11.671875 7.65625 
Q 5.515625 15.328125 5.515625 27.984375 
Q 5.515625 40.671875 11.671875 48.328125 
Q 17.828125 56 27.875 56 
Q 33.9375 56 38.28125 53.609375 
Q 42.625 51.21875 45.40625 46.390625 
L 45.40625 54.6875 
L 54.390625 54.6875 
z
" id="DejaVuSans-103"/>
       <path id="DejaVuSans-32"/>
       <path d="M 9.421875 75.984375 
L 18.40625 75.984375 
L 18.40625 0 
L 9.421875 0 
z
" id="DejaVuSans-108"/>
       <path d="M 44.28125 53.078125 
L 44.28125 44.578125 
Q 40.484375 46.53125 36.375 47.5 
Q 32.28125 48.484375 27.875 48.484375 
Q 21.1875 48.484375 17.84375 46.4375 
Q 14.5 44.390625 14.5 40.28125 
Q 14.5 37.15625 16.890625 35.375 
Q 19.28125 33.59375 26.515625 31.984375 
L 29.59375 31.296875 
Q 39.15625 29.25 43.1875 25.515625 
Q 47.21875 21.78125 47.21875 15.09375 
Q 47.21875 7.46875 41.1875 3.015625 
Q 35.15625 -1.421875 24.609375 -1.421875 
Q 20.21875 -1.421875 15.453125 -0.5625 
Q 10.6875 0.296875 5.421875 2 
L 5.421875 11.28125 
Q 10.40625 8.6875 15.234375 7.390625 
Q 20.0625 6.109375 24.8125 6.109375 
Q 31.15625 6.109375 34.5625 8.28125 
Q 37.984375 10.453125 37.984375 14.40625 
Q 37.984375 18.0625 35.515625 20.015625 
Q 33.0625 21.96875 24.703125 23.78125 
L 21.578125 24.515625 
Q 13.234375 26.265625 9.515625 29.90625 
Q 5.8125 33.546875 5.8125 39.890625 
Q 5.8125 47.609375 11.28125 51.796875 
Q 16.75 56 26.8125 56 
Q 31.78125 56 36.171875 55.265625 
Q 40.578125 54.546875 44.28125 53.078125 
z
" id="DejaVuSans-115"/>
       <path d="M 31 75.875 
Q 24.46875 64.65625 21.28125 53.65625 
Q 18.109375 42.671875 18.109375 31.390625 
Q 18.109375 20.125 21.3125 9.0625 
Q 24.515625 -2 31 -13.1875 
L 23.1875 -13.1875 
Q 15.875 -1.703125 12.234375 9.375 
Q 8.59375 20.453125 8.59375 31.390625 
Q 8.59375 42.28125 12.203125 53.3125 
Q 15.828125 64.359375 23.1875 75.875 
z
" id="DejaVuSans-40"/>
       <path d="M 8.015625 75.875 
L 15.828125 75.875 
Q 23.140625 64.359375 26.78125 53.3125 
Q 30.421875 42.28125 30.421875 31.390625 
Q 30.421875 20.453125 26.78125 9.375 
Q 23.140625 -1.703125 15.828125 -13.1875 
L 8.015625 -13.1875 
Q 14.5 -2 17.703125 9.0625 
Q 20.90625 20.125 20.90625 31.390625 
Q 20.90625 42.671875 17.703125 53.65625 
Q 14.5 64.65625 8.015625 75.875 
z
" id="DejaVuSans-41"/>
      </defs>
      <use xlink:href="#DejaVuSans-84"/>
      <use x="46.333984" xlink:href="#DejaVuSans-114"/>
      <use x="87.447266" xlink:href="#DejaVuSans-97"/>
      <use x="148.726562" xlink:href="#DejaVuSans-105"/>
      <use x="176.509766" xlink:href="#DejaVuSans-110"/>
      <use x="239.888672" xlink:href="#DejaVuSans-105"/>
      <use x="267.671875" xlink:href="#DejaVuSans-110"/>
      <use x="331.050781" xlink:href="#DejaVuSans-103"/>
      <use x="394.527344" xlink:href="#DejaVuSans-32"/>
      <use x="426.314453" xlink:href="#DejaVuSans-108"/>
      <use x="454.097656" xlink:href="#DejaVuSans-111"/>
      <use x="515.279297" xlink:href="#DejaVuSans-115"/>
      <use x="567.378906" xlink:href="#DejaVuSans-115"/>
      <use x="619.478516" xlink:href="#DejaVuSans-32"/>
      <use x="651.265625" xlink:href="#DejaVuSans-40"/>
      <use x="690.279297" xlink:href="#DejaVuSans-108"/>
      <use x="718.0625" xlink:href="#DejaVuSans-111"/>
      <use x="779.244141" xlink:href="#DejaVuSans-103"/>
      <use x="842.720703" xlink:href="#DejaVuSans-41"/>
     </g>
    </g>
   </g>
   <g id="line2d_21">
    <path clip-path="url(#pdd7e4c39bb)" d="M 64.161847 68.20408 
L 67.604306 57.462349 
L 71.046764 131.262554 
L 74.489223 154.511873 
L 77.931681 136.692647 
L 81.37414 164.062868 
L 84.816599 164.056323 
L 88.259057 163.671854 
L 91.701516 167.207013 
L 95.143974 167.024922 
L 98.586433 152.78406 
L 102.028892 165.856364 
L 105.47135 168.263719 
L 108.913809 168.067261 
L 112.356267 167.642107 
L 115.798726 166.506975 
L 119.241185 164.739364 
L 122.683643 168.771443 
L 126.126102 169.266238 
L 129.56856 167.587143 
L 133.011019 169.679056 
L 136.453478 170.707291 
L 139.895936 169.259765 
L 143.338395 171.279433 
L 146.780853 170.166103 
L 150.223312 169.791651 
L 153.665771 170.150249 
L 157.108229 170.576931 
L 160.550688 170.553628 
L 163.993146 172.188323 
L 167.435605 171.184208 
L 170.878064 169.935067 
L 174.320522 171.654492 
L 177.762981 171.357059 
L 181.205439 169.630659 
L 184.647898 167.400761 
L 188.090357 172.974965 
L 191.532815 171.770433 
L 194.975274 171.902992 
L 198.417732 171.120442 
L 201.860191 172.535208 
L 205.30265 171.741947 
L 208.745108 172.403685 
L 212.187567 169.651125 
L 215.630025 172.689426 
L 219.072484 172.733206 
L 222.514943 173.166927 
L 225.957401 171.97992 
L 229.39986 173.533644 
L 232.842318 172.839522 
L 236.284777 172.618778 
L 239.727236 170.202764 
L 243.169694 170.961626 
L 246.612153 173.119974 
L 250.054611 170.911689 
L 253.49707 171.91638 
L 256.939529 173.336388 
L 260.381987 173.869259 
L 263.824446 173.672946 
L 267.266904 172.436826 
L 270.709363 173.130115 
L 274.151822 173.838092 
L 277.59428 173.978808 
L 281.036739 173.458236 
L 284.479197 170.537981 
L 287.921656 171.143671 
L 291.364115 173.133355 
L 294.806573 174.029002 
L 298.249032 173.543662 
L 301.69149 173.522389 
L 305.133949 173.27835 
L 308.576408 174.687543 
L 312.018866 172.581348 
L 315.461325 172.697794 
L 318.903783 173.210323 
L 322.346242 169.937851 
L 325.788701 173.111893 
L 329.231159 174.113964 
L 332.673618 172.357252 
L 336.116076 172.420172 
L 339.558535 173.524384 
L 343.000994 174.505202 
L 346.443452 174.924571 
L 349.885911 173.740917 
L 353.328369 171.751712 
L 356.770828 172.892238 
L 360.213287 173.002904 
L 363.655745 174.059451 
L 367.098204 173.309118 
L 370.540662 175.148552 
L 373.983121 174.864368 
L 377.42558 172.369976 
L 380.868038 175.00139 
L 384.310497 173.983063 
L 387.752955 172.131648 
L 391.195414 169.939442 
L 394.637873 174.239645 
L 398.080331 175.185676 
L 401.52279 173.695832 
L 404.965248 174.398437 
L 408.407707 173.918508 
" style="fill:none;stroke:#377eb8;stroke-linecap:square;"/>
   </g>
   <g id="line2d_22">
    <path clip-path="url(#pdd7e4c39bb)" d="M 64.161847 78.448139 
L 67.604306 68.474712 
L 71.046764 151.99508 
L 74.489223 159.371833 
L 77.931681 141.513346 
L 81.37414 154.322918 
L 84.816599 160.143458 
L 88.259057 161.09314 
L 91.701516 164.906099 
L 95.143974 165.885232 
L 98.586433 167.581021 
L 102.028892 165.864403 
L 105.47135 167.857503 
L 108.913809 168.264939 
L 112.356267 167.736019 
L 115.798726 167.579599 
L 119.241185 168.915432 
L 122.683643 169.068749 
L 126.126102 166.771392 
L 129.56856 167.677514 
L 133.011019 169.305466 
L 136.453478 169.969124 
L 139.895936 168.631379 
L 143.338395 169.306896 
L 146.780853 168.353777 
L 150.223312 169.096269 
L 153.665771 168.361355 
L 157.108229 169.567917 
L 160.550688 169.143867 
L 163.993146 168.777565 
L 167.435605 170.434191 
L 170.878064 171.379351 
L 174.320522 169.264788 
L 177.762981 171.104925 
L 181.205439 171.276372 
L 184.647898 170.570684 
L 188.090357 170.403281 
L 191.532815 171.253911 
L 194.975274 171.254668 
L 198.417732 170.018673 
L 201.860191 172.262713 
L 205.30265 171.573039 
L 208.745108 171.878679 
L 212.187567 171.054675 
L 215.630025 171.784168 
L 219.072484 172.228671 
L 222.514943 173.897899 
L 225.957401 172.960581 
L 229.39986 173.47364 
L 232.842318 173.3334 
L 236.284777 173.083673 
L 239.727236 172.139493 
L 243.169694 174.751981 
L 246.612153 173.801742 
L 250.054611 173.359046 
L 253.49707 171.009669 
L 256.939529 173.387878 
L 260.381987 174.343797 
L 263.824446 174.478023 
L 267.266904 173.21402 
L 270.709363 174.18242 
L 274.151822 170.743115 
L 277.59428 172.809988 
L 281.036739 174.547543 
L 284.479197 174.476093 
L 287.921656 172.47964 
L 291.364115 172.634255 
L 294.806573 174.227838 
L 298.249032 173.947894 
L 301.69149 173.484968 
L 305.133949 174.187519 
L 308.576408 170.770157 
L 312.018866 174.714938 
L 315.461325 174.379175 
L 318.903783 174.682262 
L 322.346242 174.286032 
L 325.788701 174.572304 
L 329.231159 173.452093 
L 332.673618 175.661074 
L 336.116076 175.597334 
L 339.558535 174.642892 
L 343.000994 175.71322 
L 346.443452 174.356117 
L 349.885911 174.070311 
L 353.328369 174.610861 
L 356.770828 174.082703 
L 360.213287 174.34798 
L 363.655745 175.16241 
L 367.098204 175.440048 
L 370.540662 174.402229 
L 373.983121 175.050401 
L 377.42558 174.369702 
L 380.868038 174.222846 
L 384.310497 176.02292 
L 387.752955 176.598 
L 391.195414 176.178951 
L 394.637873 175.370006 
L 398.080331 176.266928 
L 401.52279 175.617728 
L 404.965248 175.78247 
L 408.407707 176.404689 
" style="fill:none;stroke:#4daf4a;stroke-linecap:square;"/>
   </g>
   <g id="line2d_23">
    <path clip-path="url(#pdd7e4c39bb)" d="M 64.161847 94.565195 
L 67.604306 86.559706 
L 71.046764 153.878663 
L 74.489223 154.895892 
L 77.931681 152.592444 
L 81.37414 157.994424 
L 84.816599 161.015833 
L 88.259057 164.568484 
L 91.701516 164.377991 
L 95.143974 165.723033 
L 98.586433 166.176249 
L 102.028892 166.342418 
L 105.47135 165.964933 
L 108.913809 168.221505 
L 112.356267 168.058959 
L 115.798726 166.226449 
L 119.241185 169.365076 
L 122.683643 167.940343 
L 126.126102 168.014534 
L 129.56856 168.425088 
L 133.011019 169.816312 
L 136.453478 170.102999 
L 139.895936 170.09058 
L 143.338395 169.206095 
L 146.780853 171.107092 
L 150.223312 170.551017 
L 153.665771 170.456387 
L 157.108229 170.453675 
L 160.550688 170.616418 
L 163.993146 170.297427 
L 167.435605 170.110368 
L 170.878064 168.586172 
L 174.320522 170.78159 
L 177.762981 170.053268 
L 181.205439 170.112732 
L 184.647898 171.53168 
L 188.090357 171.953003 
L 191.532815 170.206261 
L 194.975274 171.455445 
L 198.417732 171.896616 
L 201.860191 170.42435 
L 205.30265 171.700937 
L 208.745108 172.852656 
L 212.187567 171.785261 
L 215.630025 171.081567 
L 219.072484 173.057864 
L 222.514943 172.173352 
L 225.957401 172.434304 
L 229.39986 172.439144 
L 232.842318 172.412066 
L 236.284777 172.572343 
L 239.727236 171.745013 
L 243.169694 171.825205 
L 246.612153 171.556807 
L 250.054611 171.81891 
L 253.49707 173.35088 
L 256.939529 172.815219 
L 260.381987 170.878795 
L 263.824446 172.182194 
L 267.266904 173.326418 
L 270.709363 172.406742 
L 274.151822 172.805517 
L 277.59428 174.255665 
L 281.036739 172.978363 
L 284.479197 173.307478 
L 287.921656 173.354505 
L 291.364115 173.854304 
L 294.806573 172.191586 
L 298.249032 174.322191 
L 301.69149 174.015622 
L 305.133949 173.563897 
L 308.576408 174.0467 
L 312.018866 173.225501 
L 315.461325 173.651061 
L 318.903783 172.702433 
L 322.346242 174.248043 
L 325.788701 169.651369 
L 329.231159 173.776369 
L 332.673618 174.077118 
L 336.116076 174.365358 
L 339.558535 173.392766 
L 343.000994 174.785013 
L 346.443452 174.524946 
L 349.885911 173.775032 
L 353.328369 173.573292 
L 356.770828 173.610029 
L 360.213287 165.752389 
L 363.655745 172.464903 
L 367.098204 175.261599 
L 370.540662 174.906263 
L 373.983121 174.674283 
L 377.42558 174.383586 
L 380.868038 174.131073 
L 384.310497 174.007875 
L 387.752955 174.364971 
L 391.195414 174.570769 
L 394.637873 174.639019 
L 398.080331 173.92792 
L 401.52279 175.062837 
L 404.965248 174.252294 
L 408.407707 174.846085 
" style="fill:none;stroke:#984ea3;stroke-linecap:square;"/>
   </g>
   <g id="line2d_24">
    <path clip-path="url(#pdd7e4c39bb)" d="M 64.161847 70.948805 
L 67.604306 74.218425 
L 71.046764 150.355365 
L 74.489223 157.44601 
L 77.931681 134.548247 
L 81.37414 156.299514 
L 84.816599 155.620052 
L 88.259057 158.646283 
L 91.701516 165.300548 
L 95.143974 165.393865 
L 98.586433 167.145301 
L 102.028892 165.717058 
L 105.47135 165.490966 
L 108.913809 164.287373 
L 112.356267 166.145802 
L 115.798726 167.143769 
L 119.241185 167.295281 
L 122.683643 168.250226 
L 126.126102 166.998642 
L 129.56856 164.250566 
L 133.011019 168.894826 
L 136.453478 167.47295 
L 139.895936 168.549029 
L 143.338395 168.158416 
L 146.780853 167.08168 
L 150.223312 168.666875 
L 153.665771 169.043473 
L 157.108229 168.814397 
L 160.550688 169.145791 
L 163.993146 167.91956 
L 167.435605 169.186415 
L 170.878064 168.433609 
L 174.320522 169.394388 
L 177.762981 170.23781 
L 181.205439 170.070635 
L 184.647898 170.723648 
L 188.090357 169.712641 
L 191.532815 169.479809 
L 194.975274 169.99207 
L 198.417732 169.312565 
L 201.860191 169.44262 
L 205.30265 171.22557 
L 208.745108 171.597888 
L 212.187567 169.282062 
L 215.630025 171.018247 
L 219.072484 161.202743 
L 222.514943 171.250046 
L 225.957401 166.475242 
L 229.39986 171.520001 
L 232.842318 170.712259 
L 236.284777 171.370464 
L 239.727236 169.23552 
L 243.169694 171.563717 
L 246.612153 170.407676 
L 250.054611 170.22615 
L 253.49707 170.989604 
L 256.939529 171.996944 
L 260.381987 171.618912 
L 263.824446 171.902983 
L 267.266904 171.628543 
L 270.709363 171.906022 
L 274.151822 172.505781 
L 277.59428 172.601956 
L 281.036739 172.148282 
L 284.479197 172.405005 
L 287.921656 173.069193 
L 291.364115 171.548917 
L 294.806573 172.45381 
L 298.249032 172.087116 
L 301.69149 172.21756 
L 305.133949 172.571208 
L 308.576408 171.91887 
L 312.018866 172.831491 
L 315.461325 171.248254 
L 318.903783 173.822477 
L 322.346242 173.403912 
L 325.788701 171.361314 
L 329.231159 172.321273 
L 332.673618 172.195382 
L 336.116076 173.322864 
L 339.558535 172.444969 
L 343.000994 173.031599 
L 346.443452 173.848451 
L 349.885911 173.294732 
L 353.328369 173.01354 
L 356.770828 173.709957 
L 360.213287 172.499195 
L 363.655745 173.498118 
L 367.098204 171.894519 
L 370.540662 172.34322 
L 373.983121 161.445451 
L 377.42558 173.644545 
L 380.868038 171.940962 
L 384.310497 173.291127 
L 387.752955 172.724668 
L 391.195414 173.340085 
L 394.637873 173.575272 
L 398.080331 173.239285 
L 401.52279 174.105475 
L 404.965248 172.986349 
L 408.407707 171.064597 
" style="fill:none;stroke:#ff7f00;stroke-linecap:square;"/>
   </g>
   <g id="line2d_25">
    <path clip-path="url(#pdd7e4c39bb)" d="M 64.161847 75.867773 
L 67.604306 75.9889 
L 71.046764 151.798194 
L 74.489223 158.920367 
L 77.931681 160.967905 
L 81.37414 163.120199 
L 84.816599 163.936234 
L 88.259057 163.628118 
L 91.701516 165.686415 
L 95.143974 164.336456 
L 98.586433 163.927794 
L 102.028892 164.808025 
L 105.47135 166.520544 
L 108.913809 168.260409 
L 112.356267 167.759932 
L 115.798726 168.008106 
L 119.241185 167.452911 
L 122.683643 168.382332 
L 126.126102 169.988319 
L 129.56856 167.259912 
L 133.011019 170.034649 
L 136.453478 169.167268 
L 139.895936 170.440303 
L 143.338395 169.691977 
L 146.780853 169.33971 
L 150.223312 170.347812 
L 153.665771 169.044534 
L 157.108229 171.31358 
L 160.550688 171.036565 
L 163.993146 170.663085 
L 167.435605 170.493482 
L 170.878064 170.54208 
L 174.320522 170.339474 
L 177.762981 170.724168 
L 181.205439 171.863251 
L 184.647898 170.846799 
L 188.090357 170.971822 
L 191.532815 173.0855 
L 194.975274 171.954314 
L 198.417732 171.02438 
L 201.860191 172.21345 
L 205.30265 172.680583 
L 208.745108 172.496425 
L 212.187567 172.654959 
L 215.630025 171.308527 
L 219.072484 171.856527 
L 222.514943 171.943188 
L 225.957401 171.909951 
L 229.39986 172.622858 
L 232.842318 169.649517 
L 236.284777 172.720408 
L 239.727236 172.513188 
L 243.169694 171.929539 
L 246.612153 173.177776 
L 250.054611 172.72963 
L 253.49707 171.958441 
L 256.939529 173.068555 
L 260.381987 170.832262 
L 263.824446 172.030947 
L 267.266904 173.054782 
L 270.709363 172.641601 
L 274.151822 172.37726 
L 277.59428 171.533119 
L 281.036739 173.386147 
L 284.479197 173.456091 
L 287.921656 172.127334 
L 291.364115 173.762489 
L 294.806573 173.032159 
L 298.249032 173.508951 
L 301.69149 173.604685 
L 305.133949 172.459074 
L 308.576408 173.240139 
L 312.018866 172.831382 
L 315.461325 172.94765 
L 318.903783 171.751564 
L 322.346242 171.128498 
L 325.788701 170.839097 
L 329.231159 173.227125 
L 332.673618 174.369924 
L 336.116076 173.338008 
L 339.558535 173.856252 
L 343.000994 173.068544 
L 346.443452 172.458964 
L 349.885911 172.633187 
L 353.328369 172.40349 
L 356.770828 172.139532 
L 360.213287 171.469026 
L 363.655745 170.70137 
L 367.098204 172.168927 
L 370.540662 171.867062 
L 373.983121 168.932423 
L 377.42558 173.679044 
L 380.868038 169.86728 
L 384.310497 173.795323 
L 387.752955 173.941575 
L 391.195414 174.572858 
L 394.637873 174.010135 
L 398.080331 174.029137 
L 401.52279 172.35667 
L 404.965248 174.48808 
L 408.407707 174.525601 
" style="fill:none;stroke:#a65628;stroke-linecap:square;"/>
   </g>
   <g id="line2d_26">
    <path clip-path="url(#pdd7e4c39bb)" d="M 64.161847 78.163342 
L 67.604306 51.758 
L 71.046764 141.262551 
L 74.489223 149.169338 
L 77.931681 160.64709 
L 81.37414 160.454227 
L 84.816599 161.999259 
L 88.259057 163.048284 
L 91.701516 162.90639 
L 95.143974 148.706493 
L 98.586433 155.172324 
L 102.028892 155.931274 
L 105.47135 162.856677 
L 108.913809 166.5992 
L 112.356267 165.156713 
L 115.798726 163.813045 
L 119.241185 167.262443 
L 122.683643 165.893461 
L 126.126102 165.428865 
L 129.56856 167.340908 
L 133.011019 165.805895 
L 136.453478 166.514745 
L 139.895936 166.577115 
L 143.338395 167.856449 
L 146.780853 168.317359 
L 150.223312 168.435006 
L 153.665771 168.072262 
L 157.108229 168.242076 
L 160.550688 169.469687 
L 163.993146 166.584088 
L 167.435605 168.183875 
L 170.878064 168.920125 
L 174.320522 169.049368 
L 177.762981 167.033878 
L 181.205439 168.047981 
L 184.647898 169.423992 
L 188.090357 168.50179 
L 191.532815 167.361533 
L 194.975274 167.815879 
L 198.417732 170.530747 
L 201.860191 170.359818 
L 205.30265 168.818164 
L 208.745108 169.277138 
L 212.187567 169.648628 
L 215.630025 169.768681 
L 219.072484 169.267056 
L 222.514943 168.407183 
L 225.957401 169.237141 
L 229.39986 169.741722 
L 232.842318 171.381807 
L 236.284777 170.157237 
L 239.727236 171.019643 
L 243.169694 169.71632 
L 246.612153 169.487019 
L 250.054611 170.408394 
L 253.49707 169.231805 
L 256.939529 170.035779 
L 260.381987 170.612959 
L 263.824446 170.812732 
L 267.266904 170.255656 
L 270.709363 168.823751 
L 274.151822 166.979787 
L 277.59428 170.113628 
L 281.036739 168.392251 
L 284.479197 171.193616 
L 287.921656 166.700355 
L 291.364115 170.030695 
L 294.806573 170.673843 
L 298.249032 170.734007 
L 301.69149 170.187229 
L 305.133949 171.459114 
L 308.576408 171.378 
L 312.018866 171.174654 
L 315.461325 169.21188 
L 318.903783 169.24991 
L 322.346242 170.750515 
L 325.788701 170.687848 
L 329.231159 171.472449 
L 332.673618 170.605996 
L 336.116076 171.006145 
L 339.558535 171.042346 
L 343.000994 169.381433 
L 346.443452 170.588836 
L 349.885911 170.856254 
L 353.328369 171.757412 
L 356.770828 173.118988 
L 360.213287 170.973477 
L 363.655745 171.919093 
L 367.098204 171.609153 
L 370.540662 170.104829 
L 373.983121 172.22603 
L 377.42558 172.369878 
L 380.868038 172.112061 
L 384.310497 173.386812 
L 387.752955 171.311414 
L 391.195414 172.968457 
L 394.637873 157.546605 
L 398.080331 158.877292 
L 401.52279 171.617358 
L 404.965248 171.884939 
L 408.407707 171.236116 
" style="fill:none;stroke:#f781bf;stroke-linecap:square;"/>
   </g>
   <g id="patch_3">
    <path d="M 46.949554 182.84 
L 46.949554 45.516 
" style="fill:none;stroke:#000000;stroke-linecap:square;stroke-linejoin:miter;stroke-width:0.8;"/>
   </g>
   <g id="patch_4">
    <path d="M 425.62 182.84 
L 425.62 45.516 
" style="fill:none;stroke:#000000;stroke-linecap:square;stroke-linejoin:miter;stroke-width:0.8;"/>
   </g>
   <g id="patch_5">
    <path d="M 46.949554 182.84 
L 425.62 182.84 
" style="fill:none;stroke:#000000;stroke-linecap:square;stroke-linejoin:miter;stroke-width:0.8;"/>
   </g>
   <g id="patch_6">
    <path d="M 46.949554 45.516 
L 425.62 45.516 
" style="fill:none;stroke:#000000;stroke-linecap:square;stroke-linejoin:miter;stroke-width:0.8;"/>
   </g>
   <g id="legend_1">
    <g id="line2d_27">
     <path d="M 67.918527 30.98605 
L 80.718527 30.98605 
" style="fill:none;stroke:#377eb8;stroke-linecap:square;"/>
    </g>
    <g id="line2d_28"/>
    <g id="text_13">
     <!-- test=0.0 -->
     <g transform="translate(83.918527 33.78605)scale(0.08 -0.08)">
      <defs>
       <path d="M 18.3125 70.21875 
L 18.3125 54.6875 
L 36.8125 54.6875 
L 36.8125 47.703125 
L 18.3125 47.703125 
L 18.3125 18.015625 
Q 18.3125 11.328125 20.140625 9.421875 
Q 21.96875 7.515625 27.59375 7.515625 
L 36.8125 7.515625 
L 36.8125 0 
L 27.59375 0 
Q 17.1875 0 13.234375 3.875 
Q 9.28125 7.765625 9.28125 18.015625 
L 9.28125 47.703125 
L 2.6875 47.703125 
L 2.6875 54.6875 
L 9.28125 54.6875 
L 9.28125 70.21875 
z
" id="DejaVuSans-116"/>
       <path d="M 56.203125 29.59375 
L 56.203125 25.203125 
L 14.890625 25.203125 
Q 15.484375 15.921875 20.484375 11.0625 
Q 25.484375 6.203125 34.421875 6.203125 
Q 39.59375 6.203125 44.453125 7.46875 
Q 49.3125 8.734375 54.109375 11.28125 
L 54.109375 2.78125 
Q 49.265625 0.734375 44.1875 -0.34375 
Q 39.109375 -1.421875 33.890625 -1.421875 
Q 20.796875 -1.421875 13.15625 6.1875 
Q 5.515625 13.8125 5.515625 26.8125 
Q 5.515625 40.234375 12.765625 48.109375 
Q 20.015625 56 32.328125 56 
Q 43.359375 56 49.78125 48.890625 
Q 56.203125 41.796875 56.203125 29.59375 
z
M 47.21875 32.234375 
Q 47.125 39.59375 43.09375 43.984375 
Q 39.0625 48.390625 32.421875 48.390625 
Q 24.90625 48.390625 20.390625 44.140625 
Q 15.875 39.890625 15.1875 32.171875 
z
" id="DejaVuSans-101"/>
       <path d="M 10.59375 45.40625 
L 73.1875 45.40625 
L 73.1875 37.203125 
L 10.59375 37.203125 
z
M 10.59375 25.484375 
L 73.1875 25.484375 
L 73.1875 17.1875 
L 10.59375 17.1875 
z
" id="DejaVuSans-61"/>
       <path d="M 10.6875 12.40625 
L 21 12.40625 
L 21 0 
L 10.6875 0 
z
" id="DejaVuSans-46"/>
      </defs>
      <use xlink:href="#DejaVuSans-116"/>
      <use x="39.208984" xlink:href="#DejaVuSans-101"/>
      <use x="100.732422" xlink:href="#DejaVuSans-115"/>
      <use x="152.832031" xlink:href="#DejaVuSans-116"/>
      <use x="192.041016" xlink:href="#DejaVuSans-61"/>
      <use x="275.830078" xlink:href="#DejaVuSans-48"/>
      <use x="339.453125" xlink:href="#DejaVuSans-46"/>
      <use x="371.240234" xlink:href="#DejaVuSans-48"/>
     </g>
    </g>
    <g id="line2d_29">
     <path d="M 125.107277 30.98605 
L 137.907277 30.98605 
" style="fill:none;stroke:#4daf4a;stroke-linecap:square;"/>
    </g>
    <g id="line2d_30"/>
    <g id="text_14">
     <!-- test=0.1 -->
     <g transform="translate(141.107277 33.78605)scale(0.08 -0.08)">
      <use xlink:href="#DejaVuSans-116"/>
      <use x="39.208984" xlink:href="#DejaVuSans-101"/>
      <use x="100.732422" xlink:href="#DejaVuSans-115"/>
      <use x="152.832031" xlink:href="#DejaVuSans-116"/>
      <use x="192.041016" xlink:href="#DejaVuSans-61"/>
      <use x="275.830078" xlink:href="#DejaVuSans-48"/>
      <use x="339.453125" xlink:href="#DejaVuSans-46"/>
      <use x="371.240234" xlink:href="#DejaVuSans-49"/>
     </g>
    </g>
    <g id="line2d_31">
     <path d="M 182.296027 30.98605 
L 195.096027 30.98605 
" style="fill:none;stroke:#984ea3;stroke-linecap:square;"/>
    </g>
    <g id="line2d_32"/>
    <g id="text_15">
     <!-- test=0.2 -->
     <g transform="translate(198.296027 33.78605)scale(0.08 -0.08)">
      <use xlink:href="#DejaVuSans-116"/>
      <use x="39.208984" xlink:href="#DejaVuSans-101"/>
      <use x="100.732422" xlink:href="#DejaVuSans-115"/>
      <use x="152.832031" xlink:href="#DejaVuSans-116"/>
      <use x="192.041016" xlink:href="#DejaVuSans-61"/>
      <use x="275.830078" xlink:href="#DejaVuSans-48"/>
      <use x="339.453125" xlink:href="#DejaVuSans-46"/>
      <use x="371.240234" xlink:href="#DejaVuSans-50"/>
     </g>
    </g>
    <g id="line2d_33">
     <path d="M 239.484777 30.98605 
L 252.284777 30.98605 
" style="fill:none;stroke:#ff7f00;stroke-linecap:square;"/>
    </g>
    <g id="line2d_34"/>
    <g id="text_16">
     <!-- test=0.3 -->
     <g transform="translate(255.484777 33.78605)scale(0.08 -0.08)">
      <defs>
       <path d="M 40.578125 39.3125 
Q 47.65625 37.796875 51.625 33 
Q 55.609375 28.21875 55.609375 21.1875 
Q 55.609375 10.40625 48.1875 4.484375 
Q 40.765625 -1.421875 27.09375 -1.421875 
Q 22.515625 -1.421875 17.65625 -0.515625 
Q 12.796875 0.390625 7.625 2.203125 
L 7.625 11.71875 
Q 11.71875 9.328125 16.59375 8.109375 
Q 21.484375 6.890625 26.8125 6.890625 
Q 36.078125 6.890625 40.9375 10.546875 
Q 45.796875 14.203125 45.796875 21.1875 
Q 45.796875 27.640625 41.28125 31.265625 
Q 36.765625 34.90625 28.71875 34.90625 
L 20.21875 34.90625 
L 20.21875 43.015625 
L 29.109375 43.015625 
Q 36.375 43.015625 40.234375 45.921875 
Q 44.09375 48.828125 44.09375 54.296875 
Q 44.09375 59.90625 40.109375 62.90625 
Q 36.140625 65.921875 28.71875 65.921875 
Q 24.65625 65.921875 20.015625 65.03125 
Q 15.375 64.15625 9.8125 62.3125 
L 9.8125 71.09375 
Q 15.4375 72.65625 20.34375 73.4375 
Q 25.25 74.21875 29.59375 74.21875 
Q 40.828125 74.21875 47.359375 69.109375 
Q 53.90625 64.015625 53.90625 55.328125 
Q 53.90625 49.265625 50.4375 45.09375 
Q 46.96875 40.921875 40.578125 39.3125 
z
" id="DejaVuSans-51"/>
      </defs>
      <use xlink:href="#DejaVuSans-116"/>
      <use x="39.208984" xlink:href="#DejaVuSans-101"/>
      <use x="100.732422" xlink:href="#DejaVuSans-115"/>
      <use x="152.832031" xlink:href="#DejaVuSans-116"/>
      <use x="192.041016" xlink:href="#DejaVuSans-61"/>
      <use x="275.830078" xlink:href="#DejaVuSans-48"/>
      <use x="339.453125" xlink:href="#DejaVuSans-46"/>
      <use x="371.240234" xlink:href="#DejaVuSans-51"/>
     </g>
    </g>
    <g id="line2d_35">
     <path d="M 296.673527 30.98605 
L 309.473527 30.98605 
" style="fill:none;stroke:#a65628;stroke-linecap:square;"/>
    </g>
    <g id="line2d_36"/>
    <g id="text_17">
     <!-- test=0.4 -->
     <g transform="translate(312.673527 33.78605)scale(0.08 -0.08)">
      <use xlink:href="#DejaVuSans-116"/>
      <use x="39.208984" xlink:href="#DejaVuSans-101"/>
      <use x="100.732422" xlink:href="#DejaVuSans-115"/>
      <use x="152.832031" xlink:href="#DejaVuSans-116"/>
      <use x="192.041016" xlink:href="#DejaVuSans-61"/>
      <use x="275.830078" xlink:href="#DejaVuSans-48"/>
      <use x="339.453125" xlink:href="#DejaVuSans-46"/>
      <use x="371.240234" xlink:href="#DejaVuSans-52"/>
     </g>
    </g>
    <g id="line2d_37">
     <path d="M 353.862277 30.98605 
L 366.662277 30.98605 
" style="fill:none;stroke:#f781bf;stroke-linecap:square;"/>
    </g>
    <g id="line2d_38"/>
    <g id="text_18">
     <!-- test=0.5 -->
     <g transform="translate(369.862277 33.78605)scale(0.08 -0.08)">
      <use xlink:href="#DejaVuSans-116"/>
      <use x="39.208984" xlink:href="#DejaVuSans-101"/>
      <use x="100.732422" xlink:href="#DejaVuSans-115"/>
      <use x="152.832031" xlink:href="#DejaVuSans-116"/>
      <use x="192.041016" xlink:href="#DejaVuSans-61"/>
      <use x="275.830078" xlink:href="#DejaVuSans-48"/>
      <use x="339.453125" xlink:href="#DejaVuSans-46"/>
      <use x="371.240234" xlink:href="#DejaVuSans-53"/>
     </g>
    </g>
   </g>
  </g>
  <g id="axes_2">
   <g id="patch_7">
    <path d="M 226.284777 124.178 
L 415.62 124.178 
L 415.62 55.516 
L 226.284777 55.516 
z
" style="fill:#ffffff;"/>
   </g>
   <g id="matplotlib.axis_3">
    <g id="xtick_7">
     <g id="line2d_39">
      <path clip-path="url(#p83c53f7947)" d="M 234.890923 124.178 
L 234.890923 55.516 
" style="fill:none;stroke:#b0b0b0;stroke-dasharray:0.3,0.495;stroke-dashoffset:0;stroke-opacity:0.3;stroke-width:0.3;"/>
     </g>
     <g id="line2d_40">
      <g>
       <use style="stroke:#000000;stroke-width:0.8;" x="234.890923" xlink:href="#m582f992c89" y="124.178"/>
      </g>
     </g>
     <g id="text_19">
      <!-- 75 -->
      <g transform="translate(231.073423 135.737063)scale(0.06 -0.06)">
       <defs>
        <path d="M 8.203125 72.90625 
L 55.078125 72.90625 
L 55.078125 68.703125 
L 28.609375 0 
L 18.3125 0 
L 43.21875 64.59375 
L 8.203125 64.59375 
z
" id="DejaVuSans-55"/>
       </defs>
       <use xlink:href="#DejaVuSans-55"/>
       <use x="63.623047" xlink:href="#DejaVuSans-53"/>
      </g>
     </g>
    </g>
    <g id="xtick_8">
     <g id="line2d_41">
      <path clip-path="url(#p83c53f7947)" d="M 269.315509 124.178 
L 269.315509 55.516 
" style="fill:none;stroke:#b0b0b0;stroke-dasharray:0.3,0.495;stroke-dashoffset:0;stroke-opacity:0.3;stroke-width:0.3;"/>
     </g>
     <g id="line2d_42">
      <g>
       <use style="stroke:#000000;stroke-width:0.8;" x="269.315509" xlink:href="#m582f992c89" y="124.178"/>
      </g>
     </g>
     <g id="text_20">
      <!-- 80 -->
      <g transform="translate(265.498009 135.737063)scale(0.06 -0.06)">
       <use xlink:href="#DejaVuSans-56"/>
       <use x="63.623047" xlink:href="#DejaVuSans-48"/>
      </g>
     </g>
    </g>
    <g id="xtick_9">
     <g id="line2d_43">
      <path clip-path="url(#p83c53f7947)" d="M 303.740095 124.178 
L 303.740095 55.516 
" style="fill:none;stroke:#b0b0b0;stroke-dasharray:0.3,0.495;stroke-dashoffset:0;stroke-opacity:0.3;stroke-width:0.3;"/>
     </g>
     <g id="line2d_44">
      <g>
       <use style="stroke:#000000;stroke-width:0.8;" x="303.740095" xlink:href="#m582f992c89" y="124.178"/>
      </g>
     </g>
     <g id="text_21">
      <!-- 85 -->
      <g transform="translate(299.922595 135.737063)scale(0.06 -0.06)">
       <use xlink:href="#DejaVuSans-56"/>
       <use x="63.623047" xlink:href="#DejaVuSans-53"/>
      </g>
     </g>
    </g>
    <g id="xtick_10">
     <g id="line2d_45">
      <path clip-path="url(#p83c53f7947)" d="M 338.164681 124.178 
L 338.164681 55.516 
" style="fill:none;stroke:#b0b0b0;stroke-dasharray:0.3,0.495;stroke-dashoffset:0;stroke-opacity:0.3;stroke-width:0.3;"/>
     </g>
     <g id="line2d_46">
      <g>
       <use style="stroke:#000000;stroke-width:0.8;" x="338.164681" xlink:href="#m582f992c89" y="124.178"/>
      </g>
     </g>
     <g id="text_22">
      <!-- 90 -->
      <g transform="translate(334.347181 135.737063)scale(0.06 -0.06)">
       <defs>
        <path d="M 10.984375 1.515625 
L 10.984375 10.5 
Q 14.703125 8.734375 18.5 7.8125 
Q 22.3125 6.890625 25.984375 6.890625 
Q 35.75 6.890625 40.890625 13.453125 
Q 46.046875 20.015625 46.78125 33.40625 
Q 43.953125 29.203125 39.59375 26.953125 
Q 35.25 24.703125 29.984375 24.703125 
Q 19.046875 24.703125 12.671875 31.3125 
Q 6.296875 37.9375 6.296875 49.421875 
Q 6.296875 60.640625 12.9375 67.421875 
Q 19.578125 74.21875 30.609375 74.21875 
Q 43.265625 74.21875 49.921875 64.515625 
Q 56.59375 54.828125 56.59375 36.375 
Q 56.59375 19.140625 48.40625 8.859375 
Q 40.234375 -1.421875 26.421875 -1.421875 
Q 22.703125 -1.421875 18.890625 -0.6875 
Q 15.09375 0.046875 10.984375 1.515625 
z
M 30.609375 32.421875 
Q 37.25 32.421875 41.125 36.953125 
Q 45.015625 41.5 45.015625 49.421875 
Q 45.015625 57.28125 41.125 61.84375 
Q 37.25 66.40625 30.609375 66.40625 
Q 23.96875 66.40625 20.09375 61.84375 
Q 16.21875 57.28125 16.21875 49.421875 
Q 16.21875 41.5 20.09375 36.953125 
Q 23.96875 32.421875 30.609375 32.421875 
z
" id="DejaVuSans-57"/>
       </defs>
       <use xlink:href="#DejaVuSans-57"/>
       <use x="63.623047" xlink:href="#DejaVuSans-48"/>
      </g>
     </g>
    </g>
    <g id="xtick_11">
     <g id="line2d_47">
      <path clip-path="url(#p83c53f7947)" d="M 372.589267 124.178 
L 372.589267 55.516 
" style="fill:none;stroke:#b0b0b0;stroke-dasharray:0.3,0.495;stroke-dashoffset:0;stroke-opacity:0.3;stroke-width:0.3;"/>
     </g>
     <g id="line2d_48">
      <g>
       <use style="stroke:#000000;stroke-width:0.8;" x="372.589267" xlink:href="#m582f992c89" y="124.178"/>
      </g>
     </g>
     <g id="text_23">
      <!-- 95 -->
      <g transform="translate(368.771767 135.737063)scale(0.06 -0.06)">
       <use xlink:href="#DejaVuSans-57"/>
       <use x="63.623047" xlink:href="#DejaVuSans-53"/>
      </g>
     </g>
    </g>
    <g id="xtick_12">
     <g id="line2d_49">
      <path clip-path="url(#p83c53f7947)" d="M 407.013853 124.178 
L 407.013853 55.516 
" style="fill:none;stroke:#b0b0b0;stroke-dasharray:0.3,0.495;stroke-dashoffset:0;stroke-opacity:0.3;stroke-width:0.3;"/>
     </g>
     <g id="line2d_50">
      <g>
       <use style="stroke:#000000;stroke-width:0.8;" x="407.013853" xlink:href="#m582f992c89" y="124.178"/>
      </g>
     </g>
     <g id="text_24">
      <!-- 100 -->
      <g transform="translate(401.287603 135.737063)scale(0.06 -0.06)">
       <use xlink:href="#DejaVuSans-49"/>
       <use x="63.623047" xlink:href="#DejaVuSans-48"/>
       <use x="127.246094" xlink:href="#DejaVuSans-48"/>
      </g>
     </g>
    </g>
    <g id="text_25">
     <!-- epoch -->
     <g transform="translate(310.292701 146.303781)scale(0.07 -0.07)">
      <use xlink:href="#DejaVuSans-101"/>
      <use x="61.523438" xlink:href="#DejaVuSans-112"/>
      <use x="125" xlink:href="#DejaVuSans-111"/>
      <use x="186.181641" xlink:href="#DejaVuSans-99"/>
      <use x="241.162109" xlink:href="#DejaVuSans-104"/>
     </g>
    </g>
   </g>
   <g id="matplotlib.axis_4">
    <g id="ytick_5">
     <g id="line2d_51">
      <path clip-path="url(#p83c53f7947)" d="M 226.284777 121.942392 
L 415.62 121.942392 
" style="fill:none;stroke:#b0b0b0;stroke-dasharray:0.3,0.495;stroke-dashoffset:0;stroke-opacity:0.3;stroke-width:0.3;"/>
     </g>
     <g id="line2d_52">
      <g>
       <use style="stroke:#000000;stroke-width:0.8;" x="226.284777" xlink:href="#m7df7eb242f" y="121.942392"/>
      </g>
     </g>
     <g id="text_26">
      <!-- 0.0 -->
      <g transform="translate(209.742902 124.221923)scale(0.06 -0.06)">
       <use xlink:href="#DejaVuSans-48"/>
       <use x="63.623047" xlink:href="#DejaVuSans-46"/>
       <use x="95.410156" xlink:href="#DejaVuSans-48"/>
      </g>
     </g>
    </g>
    <g id="ytick_6">
     <g id="line2d_53">
      <path clip-path="url(#p83c53f7947)" d="M 226.284777 99.351051 
L 415.62 99.351051 
" style="fill:none;stroke:#b0b0b0;stroke-dasharray:0.3,0.495;stroke-dashoffset:0;stroke-opacity:0.3;stroke-width:0.3;"/>
     </g>
     <g id="line2d_54">
      <g>
       <use style="stroke:#000000;stroke-width:0.8;" x="226.284777" xlink:href="#m7df7eb242f" y="99.351051"/>
      </g>
     </g>
     <g id="text_27">
      <!-- 0.1 -->
      <g transform="translate(209.742902 101.630582)scale(0.06 -0.06)">
       <use xlink:href="#DejaVuSans-48"/>
       <use x="63.623047" xlink:href="#DejaVuSans-46"/>
       <use x="95.410156" xlink:href="#DejaVuSans-49"/>
      </g>
     </g>
    </g>
    <g id="ytick_7">
     <g id="line2d_55">
      <path clip-path="url(#p83c53f7947)" d="M 226.284777 76.75971 
L 415.62 76.75971 
" style="fill:none;stroke:#b0b0b0;stroke-dasharray:0.3,0.495;stroke-dashoffset:0;stroke-opacity:0.3;stroke-width:0.3;"/>
     </g>
     <g id="line2d_56">
      <g>
       <use style="stroke:#000000;stroke-width:0.8;" x="226.284777" xlink:href="#m7df7eb242f" y="76.75971"/>
      </g>
     </g>
     <g id="text_28">
      <!-- 0.2 -->
      <g transform="translate(209.742902 79.039241)scale(0.06 -0.06)">
       <use xlink:href="#DejaVuSans-48"/>
       <use x="63.623047" xlink:href="#DejaVuSans-46"/>
       <use x="95.410156" xlink:href="#DejaVuSans-50"/>
      </g>
     </g>
    </g>
    <g id="text_29">
     <!-- loss -->
     <g transform="translate(204.287121 96.607469)rotate(-90)scale(0.07 -0.07)">
      <use xlink:href="#DejaVuSans-108"/>
      <use x="27.783203" xlink:href="#DejaVuSans-111"/>
      <use x="88.964844" xlink:href="#DejaVuSans-115"/>
      <use x="141.064453" xlink:href="#DejaVuSans-115"/>
     </g>
    </g>
   </g>
   <g id="line2d_57">
    <path clip-path="url(#p83c53f7947)" d="M 234.890923 118.003452 
L 241.775841 120.008446 
L 248.660758 120.397454 
L 255.545675 119.652078 
L 262.430592 119.684148 
L 269.315509 120.179215 
L 276.200427 120.527148 
L 283.085344 120.654103 
L 289.970261 120.262736 
L 296.855178 119.319181 
L 303.740095 119.910859 
L 310.625013 119.960625 
L 317.50993 120.378463 
L 324.394847 120.092066 
L 331.279764 120.717175 
L 338.164681 120.636603 
L 345.049599 119.6586 
L 351.934516 120.676092 
L 358.819433 120.351459 
L 365.70435 119.5333 
L 372.589267 118.004856 
L 379.474185 120.440363 
L 386.359102 120.727327 
L 393.244019 120.245678 
L 400.128936 120.492877 
L 407.013853 120.328274 
" style="fill:none;stroke:#377eb8;stroke-linecap:square;"/>
   </g>
   <g id="line2d_58">
    <path clip-path="url(#p83c53f7947)" d="M 234.890923 120.455897 
L 241.775841 120.548272 
L 248.660758 120.150416 
L 255.545675 120.850127 
L 262.430592 120.834411 
L 269.315509 120.570153 
L 276.200427 120.862817 
L 283.085344 120.479063 
L 289.970261 120.382265 
L 296.855178 120.560267 
L 303.740095 120.386592 
L 310.625013 120.476392 
L 317.50993 120.720975 
L 324.394847 120.794658 
L 331.279764 120.494108 
L 338.164681 120.689926 
L 345.049599 120.483511 
L 351.934516 120.434697 
L 358.819433 120.935207 
L 365.70435 121.057 
L 372.589267 120.969819 
L 379.474185 120.7765 
L 386.359102 120.988807 
L 393.244019 120.839464 
L 400.128936 120.879443 
L 407.013853 121.017798 
" style="fill:none;stroke:#4daf4a;stroke-linecap:square;"/>
   </g>
   <g id="line2d_59">
    <path clip-path="url(#p83c53f7947)" d="M 234.890923 120.443187 
L 241.775841 117.742257 
L 248.660758 120.276028 
L 255.545675 120.384643 
L 262.430592 120.482091 
L 269.315509 120.126431 
L 276.200427 120.613172 
L 283.085344 120.533397 
L 289.970261 120.275529 
L 296.855178 120.198435 
L 303.740095 120.212735 
L 310.625013 111.878694 
L 317.50993 119.706674 
L 324.394847 120.747827 
L 331.279764 120.648806 
L 338.164681 120.579773 
L 345.049599 120.488044 
L 351.934516 120.403366 
L 358.819433 120.360281 
L 365.70435 120.481964 
L 372.589267 120.547793 
L 379.474185 120.568962 
L 386.359102 120.331676 
L 393.244019 120.693412 
L 400.128936 120.444615 
L 407.013853 120.631242 
" style="fill:none;stroke:#984ea3;stroke-linecap:square;"/>
   </g>
   <g id="line2d_60">
    <path clip-path="url(#p83c53f7947)" d="M 234.890923 120.130961 
L 241.775841 119.079326 
L 248.660758 119.633536 
L 255.545675 119.567467 
L 262.430592 120.097758 
L 269.315509 119.696663 
L 276.200427 119.973329 
L 283.085344 120.302731 
L 289.970261 120.086091 
L 296.855178 119.965344 
L 303.740095 120.251041 
L 310.625013 119.72379 
L 317.50993 120.168805 
L 324.394847 119.401808 
L 331.279764 119.644865 
L 338.164681 95.520781 
L 345.049599 120.226063 
L 351.934516 119.428115 
L 358.819433 120.08459 
L 365.70435 119.833115 
L 372.589267 120.104864 
L 379.474185 120.199209 
L 386.359102 120.06288 
L 393.244019 120.394512 
L 400.128936 119.953259 
L 407.013853 118.882463 
" style="fill:none;stroke:#ff7f00;stroke-linecap:square;"/>
   </g>
   <g id="line2d_61">
    <path clip-path="url(#p83c53f7947)" d="M 234.890923 118.925973 
L 241.775841 118.723847 
L 248.660758 120.057751 
L 255.545675 120.483584 
L 262.430592 120.104008 
L 269.315509 120.305596 
L 276.200427 119.989565 
L 283.085344 119.703696 
L 289.970261 119.789423 
L 296.855178 119.67569 
L 303.740095 119.537553 
L 310.625013 119.147613 
L 317.50993 118.622953 
L 324.394847 119.553343 
L 331.279764 119.386126 
L 338.164681 117.007934 
L 345.049599 120.239282 
L 351.934516 117.940658 
L 358.819433 120.283092 
L 365.70435 120.336597 
L 372.589267 120.548445 
L 379.474185 120.361082 
L 386.359102 120.367802 
L 393.244019 119.65178 
L 400.128936 120.521707 
L 407.013853 120.533603 
" style="fill:none;stroke:#a65628;stroke-linecap:square;"/>
   </g>
   <g id="line2d_62">
    <path clip-path="url(#p83c53f7947)" d="M 234.890923 118.659313 
L 241.775841 118.612878 
L 248.660758 119.149756 
L 255.545675 118.551236 
L 262.430592 118.842115 
L 269.315509 118.867167 
L 276.200427 117.48032 
L 283.085344 118.538169 
L 289.970261 118.736199 
L 296.855178 119.32253 
L 303.740095 120.011518 
L 310.625013 118.819333 
L 317.50993 119.415762 
L 324.394847 119.234018 
L 331.279764 118.148131 
L 338.164681 119.583723 
L 345.049599 119.65855 
L 351.934516 119.522702 
L 358.819433 120.124006 
L 365.70435 119.047128 
L 372.589267 119.945267 
L 379.474185 58.637 
L 386.359102 74.961347 
L 393.244019 119.238994 
L 400.128936 119.396348 
L 407.013853 118.997855 
" style="fill:none;stroke:#f781bf;stroke-linecap:square;"/>
   </g>
   <g id="patch_8">
    <path d="M 226.284777 124.178 
L 226.284777 55.516 
" style="fill:none;stroke:#000000;stroke-linecap:square;stroke-linejoin:miter;stroke-width:0.8;"/>
   </g>
   <g id="patch_9">
    <path d="M 415.62 124.178 
L 415.62 55.516 
" style="fill:none;stroke:#000000;stroke-linecap:square;stroke-linejoin:miter;stroke-width:0.8;"/>
   </g>
   <g id="patch_10">
    <path d="M 226.284777 124.178 
L 415.62 124.178 
" style="fill:none;stroke:#000000;stroke-linecap:square;stroke-linejoin:miter;stroke-width:0.8;"/>
   </g>
   <g id="patch_11">
    <path d="M 226.284777 55.516 
L 415.62 55.516 
" style="fill:none;stroke:#000000;stroke-linecap:square;stroke-linejoin:miter;stroke-width:0.8;"/>
   </g>
   <g id="text_30">
    <!-- final 25% -->
    <g transform="translate(303.822076 53.516)scale(0.07 -0.07)">
     <defs>
      <path d="M 37.109375 75.984375 
L 37.109375 68.5 
L 28.515625 68.5 
Q 23.6875 68.5 21.796875 66.546875 
Q 19.921875 64.59375 19.921875 59.515625 
L 19.921875 54.6875 
L 34.71875 54.6875 
L 34.71875 47.703125 
L 19.921875 47.703125 
L 19.921875 0 
L 10.890625 0 
L 10.890625 47.703125 
L 2.296875 47.703125 
L 2.296875 54.6875 
L 10.890625 54.6875 
L 10.890625 58.5 
Q 10.890625 67.625 15.140625 71.796875 
Q 19.390625 75.984375 28.609375 75.984375 
z
" id="DejaVuSans-102"/>
      <path id="DejaVuSans-8239"/>
      <path d="M 72.703125 32.078125 
Q 68.453125 32.078125 66.03125 28.46875 
Q 63.625 24.859375 63.625 18.40625 
Q 63.625 12.0625 66.03125 8.421875 
Q 68.453125 4.78125 72.703125 4.78125 
Q 76.859375 4.78125 79.265625 8.421875 
Q 81.6875 12.0625 81.6875 18.40625 
Q 81.6875 24.8125 79.265625 28.4375 
Q 76.859375 32.078125 72.703125 32.078125 
z
M 72.703125 38.28125 
Q 80.421875 38.28125 84.953125 32.90625 
Q 89.5 27.546875 89.5 18.40625 
Q 89.5 9.28125 84.9375 3.921875 
Q 80.375 -1.421875 72.703125 -1.421875 
Q 64.890625 -1.421875 60.34375 3.921875 
Q 55.8125 9.28125 55.8125 18.40625 
Q 55.8125 27.59375 60.375 32.9375 
Q 64.9375 38.28125 72.703125 38.28125 
z
M 22.3125 68.015625 
Q 18.109375 68.015625 15.6875 64.375 
Q 13.28125 60.75 13.28125 54.390625 
Q 13.28125 47.953125 15.671875 44.328125 
Q 18.0625 40.71875 22.3125 40.71875 
Q 26.5625 40.71875 28.96875 44.328125 
Q 31.390625 47.953125 31.390625 54.390625 
Q 31.390625 60.6875 28.953125 64.34375 
Q 26.515625 68.015625 22.3125 68.015625 
z
M 66.40625 74.21875 
L 74.21875 74.21875 
L 28.609375 -1.421875 
L 20.796875 -1.421875 
z
M 22.3125 74.21875 
Q 30.03125 74.21875 34.609375 68.875 
Q 39.203125 63.53125 39.203125 54.390625 
Q 39.203125 45.171875 34.640625 39.84375 
Q 30.078125 34.515625 22.3125 34.515625 
Q 14.546875 34.515625 10.03125 39.859375 
Q 5.515625 45.21875 5.515625 54.390625 
Q 5.515625 63.484375 10.046875 68.84375 
Q 14.59375 74.21875 22.3125 74.21875 
z
" id="DejaVuSans-37"/>
     </defs>
     <use xlink:href="#DejaVuSans-102"/>
     <use x="35.205078" xlink:href="#DejaVuSans-105"/>
     <use x="62.988281" xlink:href="#DejaVuSans-110"/>
     <use x="126.367188" xlink:href="#DejaVuSans-97"/>
     <use x="187.646484" xlink:href="#DejaVuSans-108"/>
     <use x="215.429688" xlink:href="#DejaVuSans-32"/>
     <use x="247.216797" xlink:href="#DejaVuSans-50"/>
     <use x="310.839844" xlink:href="#DejaVuSans-53"/>
     <use x="374.462891" xlink:href="#DejaVuSans-8239"/>
     <use x="394.433594" xlink:href="#DejaVuSans-37"/>
    </g>
   </g>
  </g>
 </g>
 <defs>
  <clipPath id="pdd7e4c39bb">
   <rect height="137.324" width="378.670446" x="46.949554" y="45.516"/>
  </clipPath>
  <clipPath id="p83c53f7947">
   <rect height="68.662" width="189.335223" x="226.284777" y="55.516"/>
  </clipPath>
 </defs>
</svg>
